<svg width="810.0" height="616.0" viewBox="0 0 810.0 616.0" xmlns="http://www.w3.org/2000/svg">
<style>/* font and background color specifications */
svg {
    font-family: SFMono-Regular,Consolas,Liberation Mono,Menlo,monospace;
    font-size: 14px;
    font-kerning: normal;
    text-rendering: optimizeLegibility;
    fill: #24292e;
}

/* default key styling */
rect {
    fill: #f6f8fa;
    stroke: #d6d8da;
    stroke-width: 1;
}

/* color accent for held keys */
.held {
    fill: #fdd;
}

/* color accent for combo boxes */
.combo {
    fill: #cdf;
}

/* color accent for ghost (optional) keys */
.ghost {
    fill: #ddd;
}

text {
    text-anchor: middle;
    dominant-baseline: middle;
}

/* styling for layer labels */
.label {
    font-weight: bold;
    text-anchor: start;
    stroke: white;
    stroke-width: 2;
    paint-order: stroke;
}

/* styling for combo box and hold-tap hold label text */
.small {
    font-size: 11px;
}

/* styling for hold-tap hold label text in combo box */
.smaller {
    font-size: 8px;
}

/* styling for combo dendrons */
path {
    stroke-width: 1;
    stroke: gray;
    fill: none;
}
</style>
<text x="30.0" y="28.0" class="label">QDRWB:</text>
<rect rx="6.0" ry="6.0" x="32.0" y="58.0" width="56.0" height="52.0"/>
<text x="60.0" y="84.0">TAB</text>
<text x="60.0" y="103.0" class="small">SHFT-TAB</text>
<rect rx="6.0" ry="6.0" x="92.0" y="58.0" width="56.0" height="52.0"/>
<text x="120.0" y="84.0">Q</text>
<text x="120.0" y="103.0" class="small">[</text>
<rect rx="6.0" ry="6.0" x="152.0" y="58.0" width="56.0" height="52.0"/>
<text x="180.0" y="84.0">D</text>
<text x="180.0" y="103.0" class="small">]</text>
<rect rx="6.0" ry="6.0" x="212.0" y="58.0" width="56.0" height="52.0"/>
<text x="240.0" y="84.0">R</text>
<text x="240.0" y="103.0" class="small">(</text>
<rect rx="6.0" ry="6.0" x="272.0" y="58.0" width="56.0" height="52.0"/>
<text x="300.0" y="84.0">W</text>
<text x="300.0" y="103.0" class="small">)</text>
<rect rx="6.0" ry="6.0" x="332.0" y="58.0" width="56.0" height="52.0"/>
<text x="360.0" y="84.0">B</text>
<text x="360.0" y="103.0" class="small">|</text>
<rect rx="6.0" ry="6.0" x="422.0" y="58.0" width="56.0" height="52.0"/>
<text x="450.0" y="84.0">J</text>
<text x="450.0" y="103.0" class="small">\</text>
<rect rx="6.0" ry="6.0" x="482.0" y="58.0" width="56.0" height="52.0"/>
<text x="510.0" y="84.0">F</text>
<text x="510.0" y="103.0" class="small">=</text>
<rect rx="6.0" ry="6.0" x="542.0" y="58.0" width="56.0" height="52.0"/>
<text x="570.0" y="84.0">U</text>
<text x="570.0" y="103.0" class="small">-</text>
<rect rx="6.0" ry="6.0" x="602.0" y="58.0" width="56.0" height="52.0"/>
<text x="630.0" y="84.0">P</text>
<text x="630.0" y="103.0" class="small">+</text>
<rect rx="6.0" ry="6.0" x="662.0" y="58.0" width="56.0" height="52.0"/>
<text x="690.0" y="84.0">;</text>
<text x="690.0" y="103.0" class="small">:</text>
<rect rx="6.0" ry="6.0" x="722.0" y="58.0" width="56.0" height="52.0"/>
<text x="750.0" y="84.0">ESC</text>
<rect rx="6.0" ry="6.0" x="32.0" y="114.0" width="56.0" height="52.0"/>
<text x="60.0" y="140.0">BSPC</text>
<text x="60.0" y="159.0" class="small">DEL</text>
<rect rx="6.0" ry="6.0" x="92.0" y="114.0" width="56.0" height="52.0"/>
<text x="120.0" y="140.0">A</text>
<text x="120.0" y="159.0" class="small">1</text>
<rect rx="6.0" ry="6.0" x="152.0" y="114.0" width="56.0" height="52.0"/>
<text x="180.0" y="140.0">S</text>
<text x="180.0" y="159.0" class="small">2</text>
<rect rx="6.0" ry="6.0" x="212.0" y="114.0" width="56.0" height="52.0"/>
<text x="240.0" y="140.0">H</text>
<text x="240.0" y="159.0" class="small">3</text>
<rect rx="6.0" ry="6.0" x="272.0" y="114.0" width="56.0" height="52.0"/>
<text x="300.0" y="140.0">T</text>
<text x="300.0" y="159.0" class="small">4</text>
<rect rx="6.0" ry="6.0" x="332.0" y="114.0" width="56.0" height="52.0"/>
<text x="360.0" y="140.0">G</text>
<text x="360.0" y="159.0" class="small">5</text>
<rect rx="6.0" ry="6.0" x="422.0" y="114.0" width="56.0" height="52.0"/>
<text x="450.0" y="140.0">Y</text>
<text x="450.0" y="159.0" class="small">6</text>
<rect rx="6.0" ry="6.0" x="482.0" y="114.0" width="56.0" height="52.0"/>
<text x="510.0" y="140.0">N</text>
<text x="510.0" y="159.0" class="small">7</text>
<rect rx="6.0" ry="6.0" x="542.0" y="114.0" width="56.0" height="52.0"/>
<text x="570.0" y="140.0">E</text>
<text x="570.0" y="159.0" class="small">8</text>
<rect rx="6.0" ry="6.0" x="602.0" y="114.0" width="56.0" height="52.0"/>
<text x="630.0" y="140.0">O</text>
<text x="630.0" y="159.0" class="small">9</text>
<rect rx="6.0" ry="6.0" x="662.0" y="114.0" width="56.0" height="52.0"/>
<text x="690.0" y="140.0">I</text>
<text x="690.0" y="159.0" class="small">0</text>
<rect rx="6.0" ry="6.0" x="722.0" y="114.0" width="56.0" height="52.0"/>
<text x="750.0" y="140.0">&#x27;</text>
<text x="750.0" y="159.0" class="small">`</text>
<rect rx="6.0" ry="6.0" x="32.0" y="170.0" width="56.0" height="52.0"/>
<text x="60.0" y="196.0">LSHFT</text>
<rect rx="6.0" ry="6.0" x="92.0" y="170.0" width="56.0" height="52.0"/>
<text x="120.0" y="196.0">Z</text>
<text x="120.0" y="215.0" class="small">[</text>
<rect rx="6.0" ry="6.0" x="152.0" y="170.0" width="56.0" height="52.0"/>
<text x="180.0" y="196.0">X</text>
<text x="180.0" y="215.0" class="small">]</text>
<rect rx="6.0" ry="6.0" x="212.0" y="170.0" width="56.0" height="52.0"/>
<text x="240.0" y="196.0">M</text>
<text x="240.0" y="215.0" class="small">(</text>
<rect rx="6.0" ry="6.0" x="272.0" y="170.0" width="56.0" height="52.0"/>
<text x="300.0" y="196.0">C</text>
<text x="300.0" y="215.0" class="small">)</text>
<rect rx="6.0" ry="6.0" x="332.0" y="170.0" width="56.0" height="52.0"/>
<text x="360.0" y="196.0">V</text>
<text x="360.0" y="215.0" class="small">Note</text>
<rect rx="6.0" ry="6.0" x="422.0" y="170.0" width="56.0" height="52.0"/>
<text x="450.0" y="196.0">K</text>
<text x="450.0" y="215.0" class="small">{</text>
<rect rx="6.0" ry="6.0" x="482.0" y="170.0" width="56.0" height="52.0"/>
<text x="510.0" y="196.0">L</text>
<text x="510.0" y="215.0" class="small">}</text>
<rect rx="6.0" ry="6.0" x="542.0" y="170.0" width="56.0" height="52.0"/>
<text x="570.0" y="196.0">,</text>
<text x="570.0" y="215.0" class="small">&lt;</text>
<rect rx="6.0" ry="6.0" x="602.0" y="170.0" width="56.0" height="52.0"/>
<text x="630.0" y="196.0">.</text>
<text x="630.0" y="215.0" class="small">&gt;</text>
<rect rx="6.0" ry="6.0" x="662.0" y="170.0" width="56.0" height="52.0"/>
<text x="690.0" y="196.0">/</text>
<text x="690.0" y="215.0" class="small">?</text>
<rect rx="6.0" ry="6.0" x="722.0" y="170.0" width="56.0" height="52.0"/>
<text x="750.0" y="196.0">RCTRL</text>
<rect rx="6.0" ry="6.0" x="212.0" y="226.0" width="56.0" height="52.0"/>
<text x="240.0" y="252.0">RALT</text>
<rect rx="6.0" ry="6.0" x="272.0" y="226.0" width="56.0" height="52.0"/>
<text x="300.0" y="252.0">LGUI</text>
<rect rx="6.0" ry="6.0" x="332.0" y="226.0" width="56.0" height="52.0"/>
<text x="360.0" y="252.0">SPACE</text>
<text x="360.0" y="271.0" class="small">FN</text>
<rect rx="6.0" ry="6.0" x="422.0" y="226.0" width="56.0" height="52.0"/>
<text x="450.0" y="252.0">RET</text>
<rect rx="6.0" ry="6.0" x="482.0" y="226.0" width="56.0" height="52.0"/>
<text x="510.0" y="252.0">FN</text>
<rect rx="6.0" ry="6.0" x="542.0" y="226.0" width="56.0" height="52.0"/>
<text x="570.0" y="252.0">~</text>
<text x="30.0" y="308.0" class="label">FN:</text>
<rect rx="6.0" ry="6.0" x="32.0" y="338.0" width="56.0" height="52.0"/>
<text x="60.0" y="364.0">
<tspan x="60.0" dy="-0.6em">BT</tspan><tspan x="60.0" dy="1.2em">CLR</tspan></text>
<rect rx="6.0" ry="6.0" x="92.0" y="338.0" width="56.0" height="52.0"/>
<text x="120.0" y="364.0">
<tspan x="120.0" dy="-0.6em">BT</tspan><tspan x="120.0" dy="1.2em">0</tspan></text>
<rect rx="6.0" ry="6.0" x="152.0" y="338.0" width="56.0" height="52.0"/>
<text x="180.0" y="364.0">
<tspan x="180.0" dy="-0.6em">BT</tspan><tspan x="180.0" dy="1.2em">1</tspan></text>
<rect rx="6.0" ry="6.0" x="212.0" y="338.0" width="56.0" height="52.0"/>
<text x="240.0" y="364.0">
<tspan x="240.0" dy="-0.6em">BT</tspan><tspan x="240.0" dy="1.2em">2</tspan></text>
<rect rx="6.0" ry="6.0" x="272.0" y="338.0" width="56.0" height="52.0"/>
<text x="300.0" y="364.0">
<tspan x="300.0" dy="-0.6em">BT</tspan><tspan x="300.0" dy="1.2em">3</tspan></text>
<rect rx="6.0" ry="6.0" x="332.0" y="338.0" width="56.0" height="52.0"/>
<text x="360.0" y="364.0">
<tspan x="360.0" dy="-0.6em">BT</tspan><tspan x="360.0" dy="1.2em">4</tspan></text>
<rect rx="6.0" ry="6.0" x="422.0" y="338.0" width="56.0" height="52.0"/>
<rect rx="6.0" ry="6.0" x="482.0" y="338.0" width="56.0" height="52.0"/>
<rect rx="6.0" ry="6.0" x="542.0" y="338.0" width="56.0" height="52.0"/>
<rect rx="6.0" ry="6.0" x="602.0" y="338.0" width="56.0" height="52.0"/>
<rect rx="6.0" ry="6.0" x="662.0" y="338.0" width="56.0" height="52.0"/>
<rect rx="6.0" ry="6.0" x="722.0" y="338.0" width="56.0" height="52.0"/>
<rect rx="6.0" ry="6.0" x="32.0" y="394.0" width="56.0" height="52.0"/>
<text x="60.0" y="420.0">BSPC</text>
<rect rx="6.0" ry="6.0" x="92.0" y="394.0" width="56.0" height="52.0"/>
<text x="120.0" y="420.0">F1</text>
<rect rx="6.0" ry="6.0" x="152.0" y="394.0" width="56.0" height="52.0"/>
<text x="180.0" y="420.0">F2</text>
<rect rx="6.0" ry="6.0" x="212.0" y="394.0" width="56.0" height="52.0"/>
<text x="240.0" y="420.0">F3</text>
<rect rx="6.0" ry="6.0" x="272.0" y="394.0" width="56.0" height="52.0"/>
<text x="300.0" y="420.0">F4</text>
<rect rx="6.0" ry="6.0" x="332.0" y="394.0" width="56.0" height="52.0"/>
<text x="360.0" y="420.0">F5</text>
<rect rx="6.0" ry="6.0" x="422.0" y="394.0" width="56.0" height="52.0"/>
<rect rx="6.0" ry="6.0" x="482.0" y="394.0" width="56.0" height="52.0"/>
<text x="510.0" y="420.0">LEFT</text>
<rect rx="6.0" ry="6.0" x="542.0" y="394.0" width="56.0" height="52.0"/>
<text x="570.0" y="420.0">DOWN</text>
<rect rx="6.0" ry="6.0" x="602.0" y="394.0" width="56.0" height="52.0"/>
<text x="630.0" y="420.0">UP</text>
<rect rx="6.0" ry="6.0" x="662.0" y="394.0" width="56.0" height="52.0"/>
<text x="690.0" y="420.0">RIGHT</text>
<rect rx="6.0" ry="6.0" x="722.0" y="394.0" width="56.0" height="52.0"/>
<rect rx="6.0" ry="6.0" x="32.0" y="450.0" width="56.0" height="52.0"/>
<text x="60.0" y="476.0">LSHFT</text>
<rect rx="6.0" ry="6.0" x="92.0" y="450.0" width="56.0" height="52.0"/>
<text x="120.0" y="476.0">F6</text>
<rect rx="6.0" ry="6.0" x="152.0" y="450.0" width="56.0" height="52.0"/>
<text x="180.0" y="476.0">F7</text>
<rect rx="6.0" ry="6.0" x="212.0" y="450.0" width="56.0" height="52.0"/>
<text x="240.0" y="476.0">F8</text>
<rect rx="6.0" ry="6.0" x="272.0" y="450.0" width="56.0" height="52.0"/>
<text x="300.0" y="476.0">F9</text>
<rect rx="6.0" ry="6.0" x="332.0" y="450.0" width="56.0" height="52.0"/>
<text x="360.0" y="476.0">F10</text>
<rect rx="6.0" ry="6.0" x="422.0" y="450.0" width="56.0" height="52.0"/>
<rect rx="6.0" ry="6.0" x="482.0" y="450.0" width="56.0" height="52.0"/>
<text x="510.0" y="476.0">HOME</text>
<rect rx="6.0" ry="6.0" x="542.0" y="450.0" width="56.0" height="52.0"/>
<text x="570.0" y="476.0">
<tspan x="570.0" dy="-0.6em">PG</tspan><tspan x="570.0" dy="1.2em">DN</tspan></text>
<rect rx="6.0" ry="6.0" x="602.0" y="450.0" width="56.0" height="52.0"/>
<text x="630.0" y="476.0">
<tspan x="630.0" dy="-0.6em">PG</tspan><tspan x="630.0" dy="1.2em">UP</tspan></text>
<rect rx="6.0" ry="6.0" x="662.0" y="450.0" width="56.0" height="52.0"/>
<text x="690.0" y="476.0">END</text>
<rect rx="6.0" ry="6.0" x="722.0" y="450.0" width="56.0" height="52.0"/>
<rect rx="6.0" ry="6.0" x="212.0" y="506.0" width="56.0" height="52.0"/>
<rect rx="6.0" ry="6.0" x="272.0" y="506.0" width="56.0" height="52.0"/>
<rect rx="6.0" ry="6.0" x="332.0" y="506.0" width="56.0" height="52.0"/>
<rect rx="6.0" ry="6.0" x="422.0" y="506.0" width="56.0" height="52.0"/>
<rect rx="6.0" ry="6.0" x="482.0" y="506.0" width="56.0" height="52.0"/>
<rect rx="6.0" ry="6.0" x="542.0" y="506.0" width="56.0" height="52.0"/>
</svg>
